<svg xmlns="http://www.w3.org/2000/svg" width="375" viewBox="0 0 375 375" height="375" version="1.0"><defs><clipPath id="a"><path d="M 69 339 L 294.90625 339 L 294.90625 347.121094 L 69 347.121094 Z M 69 339"/></clipPath><clipPath id="b"><path d="M 221 80.121094 L 269 80.121094 L 269 131 L 221 131 Z M 221 80.121094"/></clipPath><clipPath id="c"><path d="M 78.519531 160.679688 L 110.019531 160.679688 L 110.019531 192.179688 L 78.519531 192.179688 Z M 78.519531 160.679688"/></clipPath><clipPath id="d"><path d="M 133.5625 110.375 L 165.0625 110.375 L 165.0625 141.875 L 133.5625 141.875 Z M 133.5625 110.375"/></clipPath><clipPath id="e"><path d="M 279.136719 228.824219 L 310.636719 228.824219 L 310.636719 260.324219 L 279.136719 260.324219 Z M 279.136719 228.824219"/></clipPath><clipPath id="f"><path d="M 213.707031 94.496094 L 245.207031 94.496094 L 245.207031 125.996094 L 213.707031 125.996094 Z M 213.707031 94.496094"/></clipPath></defs><path fill="#FFF" d="M-37.5 -37.5H412.5V412.5H-37.5z"/><path fill="#FFF" d="M-37.5 -37.5H412.5V412.5H-37.5z"/><path fill="#3B4D69" d="M-37.5 -37.5H412.5V412.5H-37.5z"/><path fill="#FFF" d="M 94.839844 249.488281 L 139.230469 249.488281 L 139.230469 343.144531 L 94.839844 343.144531 Z M 94.839844 249.488281"/><path fill="#FFF" d="M 161.425781 206.628906 L 205.816406 206.628906 L 205.816406 343.144531 L 161.425781 343.144531 Z M 161.425781 206.628906"/><path fill="#FFF" d="M 228.011719 153.191406 L 272.402344 153.191406 L 272.402344 343.144531 L 228.011719 343.144531 Z M 228.011719 153.191406"/><g clip-path="url(#a)"><path fill="#3B4D69" d="M 290.632812 347.09375 L 73.835938 347.09375 C 71.65625 347.09375 69.890625 345.324219 69.890625 343.144531 C 69.890625 340.964844 71.65625 339.195312 73.835938 339.195312 L 290.632812 339.195312 C 292.8125 339.195312 294.578125 340.964844 294.578125 343.144531 C 294.578125 345.324219 292.8125 347.09375 290.632812 347.09375 Z M 290.632812 347.09375"/></g><path fill="#3B4D69" d="M 59.570312 256.019531 C 58.671875 256.019531 57.769531 255.714844 57.027344 255.085938 C 55.363281 253.679688 55.15625 251.1875 56.558594 249.519531 L 88.65625 211.488281 C 89.921875 209.984375 92.097656 209.648438 93.757812 210.6875 L 110.941406 221.4375 L 158.402344 164.671875 C 159.636719 163.195312 161.753906 162.828125 163.414062 163.796875 L 182.742188 175.085938 L 242.726562 103.683594 C 244.128906 102.015625 246.617188 101.800781 248.285156 103.203125 C 249.953125 104.609375 250.167969 107.101562 248.765625 108.769531 L 186.640625 182.714844 C 185.402344 184.183594 183.289062 184.550781 181.632812 183.582031 L 162.316406 172.300781 L 114.789062 229.144531 C 113.523438 230.65625 111.339844 231.003906 109.671875 229.960938 L 92.476562 219.199219 L 62.585938 254.621094 C 61.808594 255.546875 60.691406 256.019531 59.570312 256.019531 Z M 59.570312 256.019531"/><g clip-path="url(#b)"><path fill="#3B4D69" d="M 268.574219 80.121094 L 252.335938 130.628906 L 244.488281 108.789062 L 221.660156 104.792969 Z M 268.574219 80.121094"/></g><g fill="#FFF"><g><g><path d="M -21.515625 -9.34375 L -18.140625 -19.84375 C -17.335938 -22.34375 -16.191406 -24.164062 -14.703125 -25.3125 C -13.222656 -26.46875 -11.644531 -26.773438 -9.96875 -26.234375 C -8.800781 -25.859375 -7.882812 -25.191406 -7.21875 -24.234375 C -6.5625 -23.273438 -6.253906 -22.144531 -6.296875 -20.84375 C -5.585938 -22.15625 -4.585938 -23.0625 -3.296875 -23.5625 C -2.015625 -24.070312 -0.65625 -24.09375 0.78125 -23.625 C 2.664062 -23.019531 3.914062 -21.769531 4.53125 -19.875 C 5.144531 -17.976562 5.035156 -15.722656 4.203125 -13.109375 L 0.703125 -2.21875 Z M -15.390625 -13.578125 L -10.8125 -12.109375 L -9.34375 -16.671875 C -9.082031 -17.492188 -9.078125 -18.21875 -9.328125 -18.84375 C -9.585938 -19.46875 -10.082031 -19.894531 -10.8125 -20.125 C -11.5 -20.34375 -12.125 -20.269531 -12.6875 -19.90625 C -13.25 -19.550781 -13.660156 -18.960938 -13.921875 -18.140625 Z M -6.75 -10.8125 L -1.828125 -9.234375 L -0.359375 -13.796875 C -0.0234375 -14.859375 0.015625 -15.757812 -0.234375 -16.5 C -0.492188 -17.25 -1.015625 -17.75 -1.796875 -18 C -2.523438 -18.226562 -3.203125 -18.113281 -3.828125 -17.65625 C -4.460938 -17.195312 -4.945312 -16.4375 -5.28125 -15.375 Z M -6.75 -10.8125" transform="translate(60.851 162.018)"/></g></g></g><g fill="#FFF"><g><g><path d="M -5.953125 -32.453125 L 5.1875 -24.765625 C 7.726562 -23.015625 9.195312 -20.835938 9.59375 -18.234375 C 10 -15.628906 9.28125 -12.984375 7.4375 -10.296875 C 5.5625 -7.585938 3.328125 -5.945312 0.734375 -5.375 C -1.859375 -4.8125 -4.425781 -5.40625 -6.96875 -7.15625 L -18.109375 -14.84375 L -14.734375 -19.71875 L -3.59375 -12.03125 C -2.3125 -11.144531 -1.039062 -10.8125 0.21875 -11.03125 C 1.488281 -11.25 2.535156 -11.957031 3.359375 -13.15625 C 4.160156 -14.320312 4.429688 -15.515625 4.171875 -16.734375 C 3.910156 -17.960938 3.132812 -19.023438 1.84375 -19.921875 L -9.296875 -27.609375 Z M -5.953125 -32.453125" transform="translate(73.96 127.218)"/></g></g></g><g fill="#FFF"><g><g><path d="M -12.609375 -19.765625 L -4.734375 -25.96875 C -1.847656 -28.238281 1.164062 -29.238281 4.3125 -28.96875 C 7.457031 -28.695312 10.097656 -27.203125 12.234375 -24.484375 C 14.367188 -21.773438 15.1875 -18.847656 14.6875 -15.703125 C 14.195312 -12.554688 12.476562 -9.820312 9.53125 -7.5 L 1.828125 -1.4375 Z M -5 -19.71875 L 3.578125 -8.828125 L 6.90625 -11.453125 C 8.332031 -12.578125 9.109375 -14.003906 9.234375 -15.734375 C 9.359375 -17.460938 8.785156 -19.128906 7.515625 -20.734375 C 6.253906 -22.335938 4.738281 -23.269531 2.96875 -23.53125 C 1.207031 -23.789062 -0.410156 -23.335938 -1.890625 -22.171875 Z M -5 -19.71875" transform="translate(97.443 96.662)"/></g></g></g><g fill="#FFF"><g><g><path d="M 12.34375 -17.484375 L 17.140625 -19.34375 L 20.421875 -10.859375 C 19.554688 -9.578125 18.390625 -8.347656 16.921875 -7.171875 C 15.460938 -5.992188 13.976562 -5.113281 12.46875 -4.53125 C 9.15625 -3.25 5.976562 -3.238281 2.9375 -4.5 C -0.09375 -5.769531 -2.222656 -7.992188 -3.453125 -11.171875 C -4.671875 -14.316406 -4.550781 -17.382812 -3.09375 -20.375 C -1.632812 -23.375 0.816406 -25.539062 4.265625 -26.875 C 5.878906 -27.5 7.59375 -27.828125 9.40625 -27.859375 C 11.226562 -27.898438 12.894531 -27.640625 14.40625 -27.078125 L 12.75 -22.109375 C 11.675781 -22.535156 10.539062 -22.757812 9.34375 -22.78125 C 8.144531 -22.800781 7.035156 -22.613281 6.015625 -22.21875 C 4.242188 -21.53125 2.984375 -20.332031 2.234375 -18.625 C 1.492188 -16.925781 1.476562 -15.171875 2.1875 -13.359375 C 2.894531 -11.515625 4.101562 -10.207031 5.8125 -9.4375 C 7.519531 -8.664062 9.273438 -8.628906 11.078125 -9.328125 C 12.234375 -9.773438 13.382812 -10.617188 14.53125 -11.859375 Z M 12.34375 -17.484375" transform="translate(129.191 74.27)"/></g></g></g><g fill="#FFF"><g><g><path d="M 19.015625 -20.265625 L 6.71875 -19.265625 L 7.09375 -14.65625 L 18.1875 -15.5625 L 18.5625 -10.90625 L 7.46875 -10 L 7.859375 -5.328125 L 20.53125 -6.359375 L 20.90625 -1.703125 L 2.328125 -0.1875 L 0.421875 -23.4375 L 18.625 -24.921875 Z M 19.015625 -20.265625" transform="translate(165.496 62.484)"/></g></g></g><g fill="#FFF"><g><g><path d="M 15.625 -20.984375 C 19.050781 -20.304688 21.894531 -18.863281 24.15625 -16.65625 L 21.078125 -12.53125 C 20.015625 -13.46875 18.835938 -14.289062 17.546875 -15 C 16.265625 -15.71875 15.15625 -16.171875 14.21875 -16.359375 C 12.539062 -16.679688 11.59375 -16.285156 11.375 -15.171875 C 11.226562 -14.460938 11.523438 -13.804688 12.265625 -13.203125 C 13.015625 -12.609375 13.953125 -12.039062 15.078125 -11.5 C 16.203125 -10.957031 17.3125 -10.34375 18.40625 -9.65625 C 19.507812 -8.96875 20.375 -8.039062 21 -6.875 C 21.632812 -5.707031 21.804688 -4.363281 21.515625 -2.84375 C 21.078125 -0.632812 19.875 0.914062 17.90625 1.8125 C 15.945312 2.707031 13.640625 2.894531 10.984375 2.375 C 9.078125 2 7.265625 1.300781 5.546875 0.28125 C 3.828125 -0.738281 2.390625 -1.953125 1.234375 -3.359375 L 4.375 -7.390625 C 5.320312 -6.160156 6.519531 -5.066406 7.96875 -4.109375 C 9.425781 -3.160156 10.757812 -2.566406 11.96875 -2.328125 C 12.914062 -2.140625 13.679688 -2.160156 14.265625 -2.390625 C 14.847656 -2.628906 15.207031 -3.078125 15.34375 -3.734375 C 15.46875 -4.367188 15.269531 -4.957031 14.75 -5.5 C 14.238281 -6.050781 13.554688 -6.519531 12.703125 -6.90625 C 11.847656 -7.289062 10.929688 -7.753906 9.953125 -8.296875 C 8.972656 -8.847656 8.070312 -9.421875 7.25 -10.015625 C 6.4375 -10.609375 5.820312 -11.410156 5.40625 -12.421875 C 4.988281 -13.441406 4.90625 -14.585938 5.15625 -15.859375 C 5.570312 -17.953125 6.734375 -19.460938 8.640625 -20.390625 C 10.546875 -21.328125 12.875 -21.523438 15.625 -20.984375 Z M 15.625 -20.984375" transform="translate(201.502 61.486)"/></g></g></g><g fill="#FFF"><g><g><path d="M 26.328125 -7.625 L 20.03125 -10.765625 L 11.75 5.84375 L 6.453125 3.21875 L 14.734375 -13.390625 L 8.484375 -16.5 L 10.609375 -20.796875 L 28.453125 -11.921875 Z M 26.328125 -7.625" transform="translate(235.535 70.114)"/></g></g></g><g fill="#FFF"><g><g><path d="M 6.359375 5.28125 L 1.796875 1.484375 L 16.6875 -16.484375 L 21.25 -12.6875 Z M 6.359375 5.28125" transform="translate(265.34 87.395)"/></g></g></g><g fill="#FFF"><g><g><path d="M 26.90625 -2.953125 C 29.03125 -0.015625 29.878906 3.085938 29.453125 6.359375 C 29.035156 9.628906 27.460938 12.253906 24.734375 14.234375 C 21.972656 16.234375 18.957031 16.925781 15.6875 16.3125 C 12.425781 15.695312 9.738281 13.929688 7.625 11.015625 C 5.519531 8.097656 4.6875 5 5.125 1.71875 C 5.5625 -1.5625 7.171875 -4.207031 9.953125 -6.21875 C 12.703125 -8.207031 15.6875 -8.882812 18.90625 -8.25 C 22.132812 -7.625 24.800781 -5.859375 26.90625 -2.953125 Z M 22.9375 0.03125 C 21.875 -1.4375 20.425781 -2.304688 18.59375 -2.578125 C 16.757812 -2.847656 15.050781 -2.410156 13.46875 -1.265625 C 11.882812 -0.128906 10.929688 1.359375 10.609375 3.203125 C 10.285156 5.046875 10.648438 6.695312 11.703125 8.15625 C 12.765625 9.625 14.207031 10.46875 16.03125 10.6875 C 17.851562 10.914062 19.554688 10.457031 21.140625 9.3125 C 22.722656 8.175781 23.679688 6.710938 24.015625 4.921875 C 24.359375 3.128906 24 1.5 22.9375 0.03125 Z M 22.9375 0.03125" transform="translate(283.754 103.611)"/></g></g></g><g fill="#FFF"><g><g><path d="M 7.46875 22.65625 L 5.828125 17.6875 L 16.109375 3.015625 L 2.46875 7.515625 L 0.734375 2.21875 L 22.890625 -5.09375 L 24.53125 -0.125 L 14.21875 14.609375 L 27.890625 10.09375 L 29.625 15.34375 Z M 7.46875 22.65625" transform="translate(305.48 137.204)"/></g></g></g><g clip-path="url(#c)"><path fill="#3B4D69" d="M 110.019531 176.429688 C 110.019531 185.109375 102.96875 192.136719 94.269531 192.136719 C 85.570312 192.136719 78.519531 185.109375 78.519531 176.429688 C 78.519531 167.761719 85.570312 160.726562 94.269531 160.726562 C 102.96875 160.726562 110.019531 167.761719 110.019531 176.429688 Z M 110.019531 176.429688"/></g><path fill="#F8BD49" d="M 93.421875 182.121094 L 93.421875 177.074219 C 91.84375 176.625 90.6875 175.941406 89.949219 175.03125 C 89.210938 174.121094 88.84375 173.011719 88.84375 171.710938 C 88.84375 170.394531 89.261719 169.289062 90.09375 168.390625 C 90.929688 167.496094 92.035156 166.980469 93.421875 166.84375 L 93.421875 165.652344 L 95.175781 165.652344 L 95.175781 166.84375 C 96.457031 166.996094 97.476562 167.433594 98.230469 168.152344 C 98.988281 168.871094 99.472656 169.832031 99.683594 171.035156 L 96.625 171.4375 C 96.441406 170.488281 95.957031 169.84375 95.175781 169.507812 L 95.175781 174.21875 C 97.109375 174.742188 98.425781 175.417969 99.125 176.25 C 99.828125 177.082031 100.179688 178.148438 100.179688 179.449219 C 100.179688 180.902344 99.734375 182.125 98.855469 183.125 C 97.972656 184.121094 96.746094 184.730469 95.175781 184.953125 L 95.175781 187.207031 L 93.421875 187.207031 L 93.421875 185.015625 C 92.027344 184.847656 90.894531 184.328125 90.027344 183.460938 C 89.15625 182.589844 88.601562 181.367188 88.359375 179.785156 L 91.511719 179.449219 C 91.640625 180.089844 91.882812 180.644531 92.238281 181.109375 C 92.59375 181.578125 92.988281 181.914062 93.421875 182.121094 Z M 93.421875 169.472656 C 92.945312 169.632812 92.570312 169.90625 92.285156 170.292969 C 92.003906 170.679688 91.863281 171.105469 91.863281 171.566406 C 91.863281 171.996094 91.992188 172.390625 92.25 172.753906 C 92.507812 173.121094 92.898438 173.417969 93.421875 173.640625 Z M 95.175781 182.292969 C 95.78125 182.179688 96.273438 181.902344 96.648438 181.453125 C 97.027344 181.007812 97.21875 180.484375 97.21875 179.882812 C 97.21875 179.34375 97.058594 178.878906 96.738281 178.488281 C 96.421875 178.101562 95.902344 177.800781 95.175781 177.589844 Z M 95.175781 182.292969"/><g clip-path="url(#d)"><path fill="#3B4D69" d="M 165.0625 126.125 C 165.0625 134.804688 158.011719 141.828125 149.3125 141.828125 C 140.613281 141.828125 133.5625 134.804688 133.5625 126.125 C 133.5625 117.449219 140.613281 110.421875 149.3125 110.421875 C 158.011719 110.421875 165.0625 117.449219 165.0625 126.125 Z M 165.0625 126.125"/></g><path fill="#F8BD49" d="M 154.386719 117.484375 L 153.675781 120.820312 C 152.992188 120.140625 151.992188 119.796875 150.675781 119.796875 C 149.363281 119.796875 148.300781 120.269531 147.488281 121.207031 C 147.027344 121.734375 146.699219 122.398438 146.507812 123.195312 L 153.15625 123.195312 L 152.765625 125.0625 L 146.265625 125.0625 C 146.257812 125.25 146.253906 125.484375 146.253906 125.773438 C 146.253906 126.054688 146.261719 126.347656 146.277344 126.652344 L 152.429688 126.652344 L 152.042969 128.523438 L 146.53125 128.523438 C 146.734375 129.382812 147.042969 130.054688 147.464844 130.546875 C 148.269531 131.492188 149.316406 131.96875 150.605469 131.96875 C 152.152344 131.96875 153.382812 131.496094 154.304688 130.546875 L 154.304688 134.234375 C 153.253906 134.753906 152.035156 135.019531 150.640625 135.019531 C 148.289062 135.019531 146.355469 134.214844 144.839844 132.609375 C 143.808594 131.515625 143.128906 130.152344 142.796875 128.523438 L 141.007812 128.523438 L 141.398438 126.652344 L 142.582031 126.652344 C 142.574219 126.460938 142.566406 126.257812 142.566406 126.042969 C 142.566406 125.671875 142.574219 125.347656 142.59375 125.0625 L 141.007812 125.0625 L 141.394531 123.199219 L 142.832031 123.199219 C 143.171875 121.597656 143.84375 120.261719 144.851562 119.183594 C 146.375 117.5625 148.375 116.753906 150.859375 116.753906 C 152.210938 116.75 153.390625 116.992188 154.386719 117.484375 Z M 154.386719 117.484375"/><g clip-path="url(#e)"><path fill="#3B4D69" d="M 310.636719 244.574219 C 310.636719 253.253906 303.589844 260.277344 294.886719 260.277344 C 286.1875 260.277344 279.136719 253.253906 279.136719 244.574219 C 279.136719 235.902344 286.1875 228.871094 294.886719 228.871094 C 303.589844 228.871094 310.636719 235.902344 310.636719 244.574219 Z M 310.636719 244.574219"/></g><path fill="#F8BD49" d="M 300.671875 250.464844 L 302.097656 253.589844 C 301.597656 253.863281 301.019531 254.085938 300.367188 254.253906 C 299.710938 254.425781 299.074219 254.511719 298.460938 254.511719 C 297.667969 254.511719 296.613281 254.324219 295.296875 253.957031 C 293.980469 253.582031 293.003906 253.394531 292.371094 253.394531 C 291.296875 253.394531 290.207031 253.777344 289.089844 254.539062 L 287.679688 251.359375 C 288.667969 250.648438 289.382812 249.890625 289.820312 249.089844 C 290.253906 248.289062 290.472656 247.527344 290.472656 246.796875 C 290.472656 246.5625 290.457031 246.3125 290.421875 246.050781 L 287.675781 246.050781 L 287.675781 243.144531 L 289.746094 243.144531 C 289.386719 242.109375 289.207031 241.0625 289.207031 240.003906 C 289.207031 239.046875 289.46875 238.136719 289.992188 237.269531 C 290.515625 236.402344 291.253906 235.742188 292.210938 235.292969 C 293.171875 234.839844 294.214844 234.613281 295.347656 234.613281 C 297.082031 234.613281 298.460938 235.050781 299.488281 235.921875 C 300.515625 236.792969 301.144531 238.046875 301.375 239.675781 L 297.800781 240.199219 C 297.632812 239.261719 297.332031 238.585938 296.890625 238.175781 C 296.453125 237.761719 295.902344 237.558594 295.242188 237.558594 C 294.539062 237.558594 293.957031 237.789062 293.492188 238.261719 C 293.023438 238.730469 292.792969 239.320312 292.792969 240.027344 C 292.792969 240.398438 292.855469 240.882812 292.984375 241.488281 C 293.109375 242.09375 293.265625 242.644531 293.449219 243.144531 L 297.566406 243.144531 L 297.566406 246.046875 L 294.058594 246.046875 C 294.085938 246.242188 294.097656 246.433594 294.097656 246.628906 C 294.097656 247.320312 293.964844 247.960938 293.703125 248.546875 C 293.441406 249.132812 292.898438 249.90625 292.082031 250.863281 C 292.566406 250.617188 293.171875 250.496094 293.902344 250.496094 C 294.207031 250.496094 294.484375 250.511719 294.730469 250.546875 C 294.851562 250.5625 295.214844 250.644531 295.8125 250.796875 C 296.875 251.070312 297.597656 251.203125 297.988281 251.203125 C 298.667969 251.199219 299.566406 250.953125 300.671875 250.464844 Z M 300.671875 250.464844"/><g clip-path="url(#f)"><path fill="#3B4D69" d="M 245.207031 110.246094 C 245.207031 118.925781 238.160156 125.949219 229.457031 125.949219 C 220.757812 125.949219 213.707031 118.925781 213.707031 110.246094 C 213.707031 101.570312 220.757812 94.539062 229.457031 94.539062 C 238.160156 94.539062 245.207031 101.570312 245.207031 110.246094 Z M 245.207031 110.246094"/></g><path fill="#F8BD49" d="M 227.574219 116.289062 L 222.679688 116.289062 L 222.679688 113.386719 L 227.574219 113.386719 L 227.574219 111.808594 L 222.679688 111.808594 L 222.679688 108.902344 L 226.121094 108.902344 L 222.023438 100.609375 L 226.082031 100.609375 L 228.71875 106.207031 C 229.054688 106.910156 229.289062 107.527344 229.429688 108.0625 C 229.597656 107.484375 229.835938 106.867188 230.140625 106.207031 L 232.832031 100.609375 L 236.890625 100.609375 L 232.738281 108.902344 L 236.234375 108.902344 L 236.234375 111.808594 L 231.277344 111.808594 L 231.277344 113.386719 L 236.234375 113.386719 L 236.234375 116.292969 L 231.277344 116.292969 L 231.277344 119.878906 L 227.574219 119.878906 Z M 227.574219 116.289062"/><path stroke-linecap="round" transform="matrix(-.003 -6.7392 6.95528 -.0031 51.83 338.93)" fill="none" d="M 0.500288 0.0000514577 L 18.702447 0.0000415627" stroke="#FFF"/><path stroke-linecap="round" transform="matrix(-.003 -6.7392 6.95528 -.0031 51.764 192.672)" fill="#FFF" stroke-linejoin="round" d="M -2.499854 -1.49984 L -0.500236 -0.00000292501 L -2.500073 1.499794 Z M -2.499854 -1.49984" stroke="#FFF"/><path stroke-linecap="round" transform="matrix(-.003 -6.7392 6.95528 -.0031 327.49 338.93)" fill="none" d="M 0.500288 0.0000524859 L 18.702447 0.0000425909" stroke="#FFF"/><path stroke-linecap="round" transform="matrix(-.003 -6.7392 6.95528 -.0031 327.424 192.672)" fill="#FFF" stroke-linejoin="round" d="M -2.499854 -1.499843 L -0.500236 -0.00000569245 L -2.500073 1.499791 Z M -2.499854 -1.499843" stroke="#FFF"/></svg>