<svg xmlns="http://www.w3.org/2000/svg" width="375" viewBox="0 0 375 375" height="375" version="1.0"><defs><clipPath id="a"><path d="M 99 301 L 267.949219 301 L 267.949219 307.132812 L 99 307.132812 Z M 99 301"/></clipPath><clipPath id="b"><path d="M 213 106.882812 L 249 106.882812 L 249 145 L 213 145 Z M 213 106.882812"/></clipPath><clipPath id="c"><path d="M 105.675781 167.363281 L 129.675781 167.363281 L 129.675781 191.363281 L 105.675781 191.363281 Z M 105.675781 167.363281"/></clipPath><clipPath id="d"><path d="M 147.003906 129.59375 L 171.003906 129.59375 L 171.003906 153.59375 L 147.003906 153.59375 Z M 147.003906 129.59375"/></clipPath><clipPath id="e"><path d="M 256.300781 218.527344 L 280.300781 218.527344 L 280.300781 242.527344 L 256.300781 242.527344 Z M 256.300781 218.527344"/></clipPath><clipPath id="f"><path d="M 207.175781 117.671875 L 231.175781 117.671875 L 231.175781 141.671875 L 207.175781 141.671875 Z M 207.175781 117.671875"/></clipPath></defs><path fill="#FFF" d="M-37.5 -37.5H412.5V412.5H-37.5z"/><path fill="#FFF" d="M-37.5 -37.5H412.5V412.5H-37.5z"/><path fill="#3B4D69" d="M-37.5 -37.5H412.5V412.5H-37.5z"/><path fill="#FFF" d="M 117.898438 233.90625 L 151.191406 233.90625 L 151.191406 304.148438 L 117.898438 304.148438 Z M 117.898438 233.90625"/><path fill="#FFF" d="M 167.839844 201.761719 L 201.132812 201.761719 L 201.132812 304.148438 L 167.839844 304.148438 Z M 167.839844 201.761719"/><path fill="#FFF" d="M 217.777344 161.683594 L 251.074219 161.683594 L 251.074219 304.148438 L 217.777344 304.148438 Z M 217.777344 161.683594"/><g clip-path="url(#a)"><path fill="#3B4D69" d="M 264.746094 307.109375 L 102.144531 307.109375 C 100.511719 307.109375 99.1875 305.785156 99.1875 304.148438 C 99.1875 302.511719 100.511719 301.183594 102.144531 301.183594 L 264.746094 301.183594 C 266.378906 301.183594 267.703125 302.511719 267.703125 304.148438 C 267.703125 305.785156 266.378906 307.109375 264.746094 307.109375 Z M 264.746094 307.109375"/></g><path fill="#3B4D69" d="M 91.445312 238.804688 C 90.773438 238.804688 90.09375 238.574219 89.539062 238.105469 C 88.289062 237.050781 88.132812 235.179688 89.1875 233.929688 L 113.261719 205.40625 C 114.210938 204.277344 115.839844 204.023438 117.089844 204.804688 L 129.976562 212.867188 L 165.570312 170.292969 C 166.496094 169.1875 168.085938 168.910156 169.328125 169.636719 L 183.824219 178.101562 L 228.816406 124.550781 C 229.867188 123.300781 231.734375 123.140625 232.984375 124.191406 C 234.234375 125.246094 234.394531 127.113281 233.34375 128.367188 L 186.75 183.824219 C 185.824219 184.929688 184.238281 185.203125 182.996094 184.476562 L 168.503906 176.015625 L 132.859375 218.648438 C 131.910156 219.78125 130.273438 220.042969 129.023438 219.257812 L 116.125 211.1875 L 93.707031 237.753906 C 93.125 238.449219 92.289062 238.804688 91.445312 238.804688 Z M 91.445312 238.804688"/><g clip-path="url(#b)"><path fill="#3B4D69" d="M 248.199219 106.882812 L 236.019531 144.761719 L 230.136719 128.382812 L 213.015625 125.386719 Z M 248.199219 106.882812"/></g><g fill="#FFF"><g><g><path d="M -16.140625 -7.015625 L -13.609375 -14.890625 C -13.003906 -16.765625 -12.148438 -18.132812 -11.046875 -19 C -9.941406 -19.863281 -8.753906 -20.09375 -7.484375 -19.6875 C -6.597656 -19.40625 -5.910156 -18.90625 -5.421875 -18.1875 C -4.929688 -17.46875 -4.703125 -16.617188 -4.734375 -15.640625 C -4.191406 -16.628906 -3.4375 -17.3125 -2.46875 -17.6875 C -1.507812 -18.0625 -0.492188 -18.078125 0.578125 -17.734375 C 1.992188 -17.273438 2.9375 -16.335938 3.40625 -14.921875 C 3.875 -13.503906 3.789062 -11.804688 3.15625 -9.828125 L 0.53125 -1.671875 Z M -11.546875 -10.1875 L -8.109375 -9.078125 L -7.015625 -12.515625 C -6.816406 -13.128906 -6.8125 -13.671875 -7 -14.140625 C -7.195312 -14.609375 -7.5625 -14.929688 -8.09375 -15.109375 C -8.625 -15.273438 -9.097656 -15.222656 -9.515625 -14.953125 C -9.941406 -14.679688 -10.253906 -14.238281 -10.453125 -13.625 Z M -5.0625 -8.109375 L -1.375 -6.921875 L -0.28125 -10.359375 C -0.0195312 -11.148438 0.015625 -11.828125 -0.171875 -12.390625 C -0.367188 -12.953125 -0.757812 -13.328125 -1.34375 -13.515625 C -1.90625 -13.691406 -2.414062 -13.601562 -2.875 -13.25 C -3.34375 -12.90625 -3.707031 -12.335938 -3.96875 -11.546875 Z M -5.0625 -8.109375" transform="translate(93.349 168.578)"/></g></g></g><g fill="#FFF"><g><g><path d="M -4.46875 -24.375 L 3.890625 -18.609375 C 5.804688 -17.285156 6.914062 -15.644531 7.21875 -13.6875 C 7.519531 -11.726562 6.972656 -9.742188 5.578125 -7.734375 C 4.179688 -5.703125 2.507812 -4.472656 0.5625 -4.046875 C -1.382812 -3.617188 -3.316406 -4.066406 -5.234375 -5.390625 L -13.59375 -11.15625 L -11.0625 -14.8125 L -2.703125 -9.046875 C -1.734375 -8.378906 -0.773438 -8.125 0.171875 -8.28125 C 1.128906 -8.445312 1.914062 -8.976562 2.53125 -9.875 C 3.132812 -10.75 3.332031 -11.644531 3.125 -12.5625 C 2.925781 -13.476562 2.335938 -14.273438 1.359375 -14.953125 L -7 -20.71875 Z M -4.46875 -24.375" transform="translate(103.1 142.646)"/></g></g></g><g fill="#FFF"><g><g><path d="M -9.453125 -14.84375 L -3.53125 -19.5 C -1.375 -21.207031 0.878906 -21.957031 3.234375 -21.75 C 5.597656 -21.539062 7.585938 -20.414062 9.203125 -18.375 C 10.796875 -16.34375 11.40625 -14.144531 11.03125 -11.78125 C 10.65625 -9.425781 9.363281 -7.378906 7.15625 -5.640625 L 1.375 -1.078125 Z M -3.75 -14.8125 L 2.6875 -6.625 L 5.171875 -8.578125 C 6.253906 -9.429688 6.84375 -10.503906 6.9375 -11.796875 C 7.03125 -13.097656 6.597656 -14.351562 5.640625 -15.5625 C 4.691406 -16.769531 3.554688 -17.472656 2.234375 -17.671875 C 0.921875 -17.867188 -0.289062 -17.53125 -1.40625 -16.65625 Z M -3.75 -14.8125" transform="translate(120.583 119.863)"/></g></g></g><g fill="#FFF"><g><g><path d="M 9.28125 -13.140625 L 12.875 -14.53125 L 15.328125 -8.15625 C 14.679688 -7.1875 13.804688 -6.257812 12.703125 -5.375 C 11.609375 -4.5 10.492188 -3.84375 9.359375 -3.40625 C 6.867188 -2.4375 4.476562 -2.425781 2.1875 -3.375 C -0.09375 -4.332031 -1.691406 -6 -2.609375 -8.375 C -3.523438 -10.75 -3.425781 -13.054688 -2.3125 -15.296875 C -1.207031 -17.546875 0.628906 -19.164062 3.203125 -20.15625 C 4.410156 -20.632812 5.695312 -20.890625 7.0625 -20.921875 C 8.4375 -20.953125 9.679688 -20.753906 10.796875 -20.328125 L 9.5625 -16.59375 C 8.757812 -16.90625 7.90625 -17.070312 7 -17.09375 C 6.101562 -17.113281 5.273438 -16.976562 4.515625 -16.6875 C 3.171875 -16.164062 2.222656 -15.265625 1.671875 -13.984375 C 1.128906 -12.710938 1.125 -11.390625 1.65625 -10.015625 C 2.1875 -8.640625 3.09375 -7.660156 4.375 -7.078125 C 5.65625 -6.503906 6.972656 -6.476562 8.328125 -7 C 9.203125 -7.34375 10.0625 -7.976562 10.90625 -8.90625 Z M 9.28125 -13.140625" transform="translate(144.232 103.161)"/></g></g></g><g fill="#FFF"><g><g><path d="M 14.265625 -15.234375 L 5.046875 -14.46875 L 5.328125 -11 L 13.65625 -11.6875 L 13.9375 -8.1875 L 5.609375 -7.5 L 5.90625 -3.984375 L 15.40625 -4.765625 L 15.6875 -1.28125 L 1.75 -0.140625 L 0.328125 -17.59375 L 13.984375 -18.71875 Z M 14.265625 -15.234375" transform="translate(171.285 94.36)"/></g></g></g><g fill="#FFF"><g><g><path d="M 11.75 -15.75 C 14.3125 -15.25 16.441406 -14.164062 18.140625 -12.5 L 15.8125 -9.40625 C 15.007812 -10.101562 14.128906 -10.722656 13.171875 -11.265625 C 12.210938 -11.804688 11.378906 -12.144531 10.671875 -12.28125 C 9.410156 -12.53125 8.695312 -12.238281 8.53125 -11.40625 C 8.425781 -10.863281 8.648438 -10.363281 9.203125 -9.90625 C 9.765625 -9.457031 10.46875 -9.03125 11.3125 -8.625 C 12.164062 -8.21875 13.003906 -7.753906 13.828125 -7.234375 C 14.648438 -6.722656 15.296875 -6.03125 15.765625 -5.15625 C 16.242188 -4.289062 16.367188 -3.285156 16.140625 -2.140625 C 15.816406 -0.484375 14.914062 0.679688 13.4375 1.359375 C 11.96875 2.035156 10.238281 2.175781 8.25 1.78125 C 6.8125 1.5 5.445312 0.976562 4.15625 0.21875 C 2.875 -0.539062 1.796875 -1.457031 0.921875 -2.53125 L 3.28125 -5.546875 C 4.007812 -4.617188 4.914062 -3.800781 6 -3.09375 C 7.082031 -2.382812 8.082031 -1.9375 9 -1.75 C 9.707031 -1.613281 10.273438 -1.632812 10.703125 -1.8125 C 11.140625 -1.988281 11.40625 -2.320312 11.5 -2.8125 C 11.59375 -3.28125 11.445312 -3.71875 11.0625 -4.125 C 10.675781 -4.53125 10.160156 -4.878906 9.515625 -5.171875 C 8.878906 -5.460938 8.191406 -5.8125 7.453125 -6.21875 C 6.722656 -6.632812 6.054688 -7.066406 5.453125 -7.515625 C 4.847656 -7.960938 4.382812 -8.570312 4.0625 -9.34375 C 3.738281 -10.113281 3.671875 -10.972656 3.859375 -11.921875 C 4.171875 -13.484375 5.046875 -14.613281 6.484375 -15.3125 C 7.929688 -16.007812 9.6875 -16.15625 11.75 -15.75 Z M 11.75 -15.75" transform="translate(198.118 93.6)"/></g></g></g><g fill="#FFF"><g><g><path d="M 19.765625 -5.71875 L 15.046875 -8.078125 L 8.828125 4.390625 L 4.84375 2.40625 L 11.0625 -10.0625 L 6.375 -12.390625 L 7.96875 -15.609375 L 21.359375 -8.9375 Z M 19.765625 -5.71875" transform="translate(223.485 100.013)"/></g></g></g><g fill="#FFF"><g><g><path d="M 4.78125 3.953125 L 1.34375 1.109375 L 12.515625 -12.375 L 15.953125 -9.53125 Z M 4.78125 3.953125" transform="translate(245.722 112.897)"/></g></g></g><g fill="#FFF"><g><g><path d="M 20.203125 -2.1875 C 21.796875 0.0078125 22.429688 2.332031 22.109375 4.78125 C 21.796875 7.226562 20.613281 9.195312 18.5625 10.6875 C 16.5 12.175781 14.238281 12.691406 11.78125 12.234375 C 9.320312 11.785156 7.300781 10.460938 5.71875 8.265625 C 4.132812 6.078125 3.503906 3.75 3.828125 1.28125 C 4.160156 -1.175781 5.367188 -3.15625 7.453125 -4.65625 C 9.523438 -6.15625 11.769531 -6.664062 14.1875 -6.1875 C 16.613281 -5.71875 18.617188 -4.382812 20.203125 -2.1875 Z M 17.21875 0.015625 C 16.414062 -1.085938 15.328125 -1.738281 13.953125 -1.9375 C 12.578125 -2.144531 11.289062 -1.816406 10.09375 -0.953125 C 8.90625 -0.0976562 8.191406 1.019531 7.953125 2.40625 C 7.710938 3.789062 7.988281 5.03125 8.78125 6.125 C 9.570312 7.21875 10.648438 7.847656 12.015625 8.015625 C 13.378906 8.179688 14.65625 7.832031 15.84375 6.96875 C 17.039062 6.113281 17.765625 5.015625 18.015625 3.671875 C 18.273438 2.328125 18.007812 1.109375 17.21875 0.015625 Z M 17.21875 0.015625" transform="translate(259.422 124.936)"/></g></g></g><g fill="#FFF"><g><g><path d="M 5.609375 17 L 4.375 13.28125 L 12.09375 2.25 L 1.859375 5.625 L 0.546875 1.65625 L 17.1875 -3.828125 L 18.421875 -0.09375 L 10.671875 10.984375 L 20.953125 7.59375 L 22.25 11.515625 Z M 5.609375 17" transform="translate(275.636 149.954)"/></g></g></g><g clip-path="url(#c)"><path fill="#3B4D69" d="M 129.675781 179.363281 C 129.675781 185.980469 124.304688 191.335938 117.675781 191.335938 C 111.050781 191.335938 105.675781 185.980469 105.675781 179.363281 C 105.675781 172.753906 111.050781 167.394531 117.675781 167.394531 C 124.304688 167.394531 129.675781 172.753906 129.675781 179.363281 Z M 129.675781 179.363281"/></g><path fill="#F8BD49" d="M 117.03125 183.703125 L 117.03125 179.855469 C 115.828125 179.511719 114.949219 178.992188 114.386719 178.296875 C 113.824219 177.601562 113.542969 176.757812 113.542969 175.765625 C 113.542969 174.761719 113.863281 173.917969 114.496094 173.234375 C 115.132812 172.554688 115.976562 172.160156 117.03125 172.054688 L 117.03125 171.148438 L 118.367188 171.148438 L 118.367188 172.054688 C 119.34375 172.171875 120.121094 172.503906 120.695312 173.054688 C 121.273438 173.601562 121.640625 174.332031 121.800781 175.253906 L 119.472656 175.558594 C 119.332031 174.832031 118.964844 174.34375 118.367188 174.085938 L 118.367188 177.675781 C 119.84375 178.078125 120.84375 178.59375 121.378906 179.226562 C 121.914062 179.859375 122.179688 180.671875 122.179688 181.664062 C 122.179688 182.773438 121.84375 183.707031 121.171875 184.464844 C 120.5 185.226562 119.566406 185.691406 118.367188 185.859375 L 118.367188 187.582031 L 117.03125 187.582031 L 117.03125 185.90625 C 115.96875 185.78125 115.109375 185.382812 114.445312 184.722656 C 113.78125 184.058594 113.359375 183.125 113.175781 181.921875 L 115.578125 181.664062 C 115.675781 182.152344 115.859375 182.578125 116.128906 182.929688 C 116.402344 183.285156 116.703125 183.542969 117.03125 183.703125 Z M 117.03125 174.058594 C 116.671875 174.183594 116.382812 174.390625 116.167969 174.683594 C 115.953125 174.980469 115.84375 175.304688 115.84375 175.65625 C 115.84375 175.984375 115.941406 176.285156 116.140625 176.5625 C 116.335938 176.839844 116.632812 177.066406 117.03125 177.238281 Z M 118.367188 183.832031 C 118.828125 183.746094 119.203125 183.535156 119.492188 183.191406 C 119.78125 182.855469 119.925781 182.453125 119.925781 181.996094 C 119.925781 181.585938 119.804688 181.230469 119.558594 180.933594 C 119.320312 180.636719 118.921875 180.410156 118.367188 180.246094 Z M 118.367188 183.832031"/><g clip-path="url(#d)"><path fill="#3B4D69" d="M 171.003906 141.59375 C 171.003906 148.210938 165.632812 153.566406 159.003906 153.566406 C 152.375 153.566406 147.003906 148.210938 147.003906 141.59375 C 147.003906 134.984375 152.375 129.625 159.003906 129.625 C 165.632812 129.625 171.003906 134.984375 171.003906 141.59375 Z M 171.003906 141.59375"/></g><path fill="#F8BD49" d="M 162.871094 135.007812 L 162.328125 137.550781 C 161.804688 137.03125 161.042969 136.773438 160.042969 136.773438 C 159.042969 136.773438 158.234375 137.132812 157.613281 137.84375 C 157.261719 138.25 157.015625 138.753906 156.867188 139.363281 L 161.929688 139.363281 L 161.636719 140.785156 L 156.683594 140.785156 C 156.675781 140.925781 156.675781 141.105469 156.675781 141.328125 C 156.675781 141.542969 156.679688 141.765625 156.691406 141.996094 L 161.378906 141.996094 L 161.085938 143.421875 L 156.886719 143.421875 C 157.039062 144.078125 157.277344 144.589844 157.59375 144.964844 C 158.207031 145.6875 159.007812 146.050781 159.988281 146.050781 C 161.167969 146.050781 162.105469 145.6875 162.804688 144.964844 L 162.804688 147.777344 C 162.007812 148.171875 161.078125 148.375 160.015625 148.375 C 158.222656 148.375 156.75 147.761719 155.597656 146.535156 C 154.8125 145.703125 154.292969 144.664062 154.039062 143.421875 L 152.675781 143.421875 L 152.972656 141.996094 L 153.875 141.996094 C 153.867188 141.851562 153.867188 141.695312 153.867188 141.53125 C 153.867188 141.25 153.871094 141 153.882812 140.785156 L 152.675781 140.785156 L 152.972656 139.363281 L 154.066406 139.363281 C 154.324219 138.144531 154.835938 137.125 155.605469 136.304688 C 156.765625 135.066406 158.289062 134.449219 160.179688 134.449219 C 161.214844 134.449219 162.109375 134.632812 162.871094 135.007812 Z M 162.871094 135.007812"/><g clip-path="url(#e)"><path fill="#3B4D69" d="M 280.300781 230.527344 C 280.300781 237.144531 274.929688 242.496094 268.300781 242.496094 C 261.671875 242.496094 256.300781 237.144531 256.300781 230.527344 C 256.300781 223.914062 261.671875 218.554688 268.300781 218.554688 C 274.929688 218.554688 280.300781 223.914062 280.300781 230.527344 Z M 280.300781 230.527344"/></g><path fill="#F8BD49" d="M 272.710938 235.015625 L 273.796875 237.398438 C 273.414062 237.605469 272.972656 237.777344 272.476562 237.90625 C 271.976562 238.035156 271.492188 238.101562 271.023438 238.101562 C 270.417969 238.101562 269.617188 237.960938 268.613281 237.675781 C 267.609375 237.394531 266.867188 237.25 266.382812 237.25 C 265.566406 237.25 264.734375 237.542969 263.882812 238.125 L 262.808594 235.699219 C 263.5625 235.15625 264.109375 234.578125 264.441406 233.96875 C 264.769531 233.359375 264.9375 232.777344 264.9375 232.222656 C 264.9375 232.042969 264.925781 231.851562 264.898438 231.652344 L 262.808594 231.652344 L 262.808594 229.4375 L 264.386719 229.4375 C 264.109375 228.648438 263.972656 227.847656 263.972656 227.042969 C 263.972656 226.3125 264.171875 225.617188 264.570312 224.957031 C 264.96875 224.296875 265.53125 223.792969 266.261719 223.449219 C 266.992188 223.105469 267.789062 222.933594 268.652344 222.933594 C 269.972656 222.933594 271.023438 223.265625 271.808594 223.929688 C 272.589844 224.597656 273.070312 225.550781 273.246094 226.792969 L 270.519531 227.191406 C 270.394531 226.476562 270.164062 225.960938 269.828125 225.648438 C 269.492188 225.332031 269.074219 225.175781 268.570312 225.175781 C 268.035156 225.175781 267.589844 225.355469 267.238281 225.714844 C 266.882812 226.070312 266.703125 226.519531 266.703125 227.0625 C 266.703125 227.339844 266.753906 227.710938 266.851562 228.171875 C 266.949219 228.632812 267.066406 229.054688 267.207031 229.4375 L 270.339844 229.4375 L 270.339844 231.648438 L 267.667969 231.648438 C 267.6875 231.796875 267.699219 231.945312 267.699219 232.089844 C 267.699219 232.617188 267.597656 233.109375 267.398438 233.554688 C 267.199219 234 266.785156 234.589844 266.164062 235.320312 C 266.53125 235.132812 266.992188 235.039062 267.550781 235.039062 C 267.785156 235.039062 267.992188 235.050781 268.179688 235.078125 C 268.273438 235.09375 268.550781 235.15625 269.003906 235.269531 C 269.816406 235.476562 270.367188 235.582031 270.664062 235.582031 C 271.183594 235.578125 271.867188 235.390625 272.710938 235.015625 Z M 272.710938 235.015625"/><g clip-path="url(#f)"><path fill="#3B4D69" d="M 231.175781 129.671875 C 231.175781 136.289062 225.804688 141.640625 219.175781 141.640625 C 212.546875 141.640625 207.175781 136.289062 207.175781 129.671875 C 207.175781 123.058594 212.546875 117.699219 219.175781 117.699219 C 225.804688 117.699219 231.175781 123.058594 231.175781 129.671875 Z M 231.175781 129.671875"/></g><path fill="#F8BD49" d="M 217.742188 134.28125 L 214.011719 134.28125 L 214.011719 132.066406 L 217.742188 132.066406 L 217.742188 130.863281 L 214.011719 130.863281 L 214.011719 128.648438 L 216.632812 128.648438 L 213.511719 122.328125 L 216.605469 122.328125 L 218.613281 126.59375 C 218.867188 127.128906 219.050781 127.601562 219.15625 128.007812 C 219.28125 127.566406 219.464844 127.097656 219.699219 126.59375 L 221.746094 122.328125 L 224.839844 122.328125 L 221.675781 128.648438 L 224.339844 128.648438 L 224.339844 130.863281 L 220.5625 130.863281 L 220.5625 132.066406 L 224.339844 132.066406 L 224.339844 134.28125 L 220.5625 134.28125 L 220.5625 137.015625 L 217.742188 137.015625 Z M 217.742188 134.28125"/><path stroke-linecap="round" transform="matrix(-.00234 -5.26286 4.81145 -.00214 85.438 301.19)" fill="none" d="M 0.499909 0.000177526 L 17.949708 -0.000254407" stroke="#FFF"/><path stroke-linecap="round" transform="matrix(-.00234 -5.26286 4.81145 -.00214 85.389 190.934)" fill="#FFF" stroke-linejoin="round" d="M -2.499946 -1.500336 L -0.500251 0.000151692 L -2.499683 1.500316 Z M -2.499946 -1.500336" stroke="#FFF"/><path stroke-linecap="round" transform="matrix(-.00234 -5.26286 4.81145 -.00214 292.403 301.19)" fill="none" d="M 0.499909 0.000171653 L 17.949708 -0.00026028" stroke="#FFF"/><path stroke-linecap="round" transform="matrix(-.00234 -5.26286 4.81145 -.00214 292.354 190.934)" fill="#FFF" stroke-linejoin="round" d="M -2.499946 -1.500341 L -0.500251 0.000147315 L -2.499683 1.500311 Z M -2.499946 -1.500341" stroke="#FFF"/></svg>